<svg width="20" height="20" viewBox="0 0 20 20" fill="none" xmlns="http://www.w3.org/2000/svg">
<path d="M9.16667 8.75016H9.50001C9.77615 8.75016 10 8.97402 10 9.25016V12.4168C10 12.693 10.2239 12.9168 10.5 12.9168H10.8333M10 7.0835H10.0083" stroke="#EA3A61" stroke-linecap="round" stroke-linejoin="round"/>
<path d="M11.1577 16.5655C12.0198 16.4135 12.8436 16.0932 13.582 15.6228C14.3204 15.1524 14.9589 14.5412 15.461 13.824C15.9632 13.1069 16.3192 12.2978 16.5086 11.4431C16.6981 10.5884 16.7174 9.70469 16.5654 8.84251C16.4134 7.98033 16.093 7.15654 15.6226 6.41816C15.1522 5.67979 14.541 5.0413 13.8238 4.53915C13.1067 4.03699 12.2977 3.68101 11.4429 3.49152C10.5882 3.30203 9.70453 3.28275 8.84235 3.43478C7.98017 3.5868 7.15638 3.90716 6.41801 4.37755C5.67963 4.84795 5.04114 5.45917 4.53899 6.17632C4.03684 6.89347 3.68085 7.70251 3.49136 8.55723C3.30187 9.41196 3.28259 10.2956 3.43462 11.1578C3.58664 12.02 3.907 12.8438 4.37739 13.5822C4.84779 14.3205 5.45901 14.959 6.17616 15.4612C6.89331 15.9633 7.70235 16.3193 8.55708 16.5088C9.4118 16.6983 10.2955 16.7176 11.1577 16.5655L11.1577 16.5655Z" stroke="#EA3A61"/>
</svg>
